<svg width="20" height="24" viewBox="0 0 12 9" fill="none" xmlns="http://www.w3.org/2000/svg">
<path d="M9.5 4.52H0.5C0.22 4.52 0 4.3 0 4.02C0 3.74 0.22 3.52 0.5 3.52H9.5C9.78 3.52 10 3.74 10 4.02C10 4.3 9.78 4.52 9.5 4.52Z" fill="white"/>
<path d="M7 8.02C6.93442 8.0208 6.86941 8.00787 6.80913 7.98203C6.74885 7.9562 6.69465 7.91804 6.65 7.87C6.45 7.67 6.45 7.36 6.65 7.16L9.8 4.01L6.65 0.86C6.45 0.66 6.45 0.35 6.65 0.15C6.85 -0.05 7.16 -0.05 7.36 0.15L10.86 3.65C11.06 3.85 11.06 4.16 10.86 4.36L7.36 7.86C7.26 7.96 7.13 8.01 7.01 8.01L7 8.02Z" fill="white"/>
</svg>
