<svg data-v-423bf9ae="" xmlns="http://www.w3.org/2000/svg" width="150" height="100" viewBox="0 0 517 90" class="iconLeft"><!----><!----><!----><g data-v-423bf9ae="" id="9d166bcc-0b9e-4dc3-8a2a-ba1b8b43151b" fill="white" transform="matrix(5.964215028353327,0,0,5.964215028353327,136.0437820958986,-7.186880314530519)"><path d="M9.62 3.92L7.70 3.92L7.70 8.08L3.18 8.08L3.18 3.92L1.25 3.92L1.25 13.58L3.18 13.58L3.18 9.62L7.70 9.62L7.70 13.58L9.62 13.58ZM16.02 3.72C13.03 3.72 11.24 5.71 11.24 8.75C11.24 11.77 13.03 13.78 16.02 13.78C18.98 13.78 20.79 11.77 20.79 8.75C20.79 5.71 18.98 3.72 16.02 3.72ZM16.02 12.33C14.29 12.33 13.26 11.00 13.26 8.75C13.26 6.48 14.29 5.17 16.02 5.17C17.72 5.17 18.76 6.48 18.76 8.75C18.76 11.00 17.72 12.33 16.02 12.33ZM32.90 3.92L29.90 3.92L27.72 11.80L25.54 3.92L22.48 3.92L22.48 13.58L24.42 13.58L24.42 9.11C24.42 8.11 24.42 6.83 24.39 5.82C24.61 6.82 24.96 8.11 25.26 9.09L26.64 13.58L28.74 13.58L30.10 9.10C30.41 8.11 30.76 6.82 31.00 5.81C30.97 6.82 30.97 8.11 30.97 9.11L30.97 13.58L32.90 13.58ZM42.01 12.05L36.97 12.05L36.97 9.51L41.52 9.51L41.52 7.98L36.97 7.98L36.97 5.43L41.87 5.43L41.87 3.92L35.04 3.92L35.04 13.58L42.01 13.58ZM45.60 13.58L45.60 3.92L43.67 3.92L43.67 13.58ZM49.69 5.43L54.59 5.43L54.59 3.92L47.75 3.92L47.75 13.58L49.69 13.58L49.69 9.51L54.10 9.51L54.10 7.98L49.69 7.98ZM60.37 9.84L63.78 3.92L61.66 3.92L59.47 8.13L57.22 3.92L55.03 3.92L58.45 9.84L58.45 13.58L60.37 13.58Z"></path></g><!----><g data-v-423bf9ae="" id="ed1a7e53-9840-44bf-bc59-9d3bde0873ca" transform="matrix(1.3722024453662658,0,0,1.3722024453662658,-6.610333824539367,-23.404116461957912)" stroke="none" fill="white"><g clip-rule="evenodd"><path d="M11.81 41.39c3.938 1.398 8.579 6.772 12.511 12.594.421.622.834 1.271 1.252 1.964h48.854c.419-.694.832-1.343 1.251-1.964 4.309-6.379 9.468-11.977 13.622-12.917.06-.243.121-.471.181-.717 3.728-15.413-14.87-23.144-38.98-23.144s-43.07 7.891-38.98 23.144c.097.358.193.69.289 1.04z"></path><path d="M93.478 44.642c-3.247-3.084-10.627 2.664-16.485 11.335a45.047 45.047 0 0 0-1.722 2.773H25.035c-.099 0-.195.015-.292.022a45.565 45.565 0 0 0-1.735-2.795C17.15 47.306 9.769 41.559 6.522 44.642c-3.247 3.084-1.13 12.614 4.728 21.286 3.382 5.006 7.264 8.613 10.571 10.186.468 3.862 1.919 6.68 3.638 6.68 1.583 0 2.939-2.388 3.509-5.78h42.885c.571 3.392 1.926 5.78 3.509 5.78 1.786 0 3.28-3.043 3.686-7.136 3.106-1.76 6.612-5.157 9.701-9.729 5.859-8.673 7.975-18.203 4.729-21.287z"></path></g></g><!----></svg>