<svg data-v-fde0c5aa="" xmlns="http://www.w3.org/2000/svg" viewBox="0 0 300 300" class="font"><!----><defs data-v-fde0c5aa=""><!----></defs><rect data-v-fde0c5aa="" fill="transparent" x="0" y="0" width="300px" height="300px" class="logo-background-square"></rect><defs data-v-fde0c5aa=""><linearGradient data-v-fde0c5aa="" gradientTransform="rotate(25)" id="3e6cf0b3-e48a-444d-851d-f3662a1c585e" x1="0%" y1="0%" x2="100%" y2="0%"><stop data-v-fde0c5aa="" offset="0%" stop-color="#0076DD" stop-opacity="1"></stop><stop data-v-fde0c5aa="" offset="100%" stop-color="#00CDE9" stop-opacity="1"></stop></linearGradient></defs><g data-v-fde0c5aa="" id="6993fb0d-c3be-416c-a713-4242759a9496" fill="url(#3e6cf0b3-e48a-444d-851d-f3662a1c585e)" transform="matrix(3.5183112793029516,0,0,3.5183112793029516,35.60211090087131,119.21477714492994)"><path d="M9.62 3.92L7.70 3.92L7.70 8.08L3.18 8.08L3.18 3.92L1.25 3.92L1.25 13.58L3.18 13.58L3.18 9.62L7.70 9.62L7.70 13.58L9.62 13.58ZM16.02 3.72C13.03 3.72 11.24 5.71 11.24 8.75C11.24 11.77 13.03 13.78 16.02 13.78C18.98 13.78 20.79 11.77 20.79 8.75C20.79 5.71 18.98 3.72 16.02 3.72ZM16.02 12.33C14.29 12.33 13.26 11.00 13.26 8.75C13.26 6.48 14.29 5.17 16.02 5.17C17.72 5.17 18.76 6.48 18.76 8.75C18.76 11.00 17.72 12.33 16.02 12.33ZM32.90 3.92L29.90 3.92L27.72 11.80L25.54 3.92L22.48 3.92L22.48 13.58L24.42 13.58L24.42 9.11C24.42 8.11 24.42 6.83 24.39 5.82C24.61 6.82 24.96 8.11 25.26 9.09L26.64 13.58L28.74 13.58L30.10 9.10C30.41 8.11 30.76 6.82 31.00 5.81C30.97 6.82 30.97 8.11 30.97 9.11L30.97 13.58L32.90 13.58ZM42.01 12.05L36.97 12.05L36.97 9.51L41.52 9.51L41.52 7.98L36.97 7.98L36.97 5.43L41.87 5.43L41.87 3.92L35.04 3.92L35.04 13.58L42.01 13.58ZM45.60 13.58L45.60 3.92L43.67 3.92L43.67 13.58ZM49.69 5.43L54.59 5.43L54.59 3.92L47.75 3.92L47.75 13.58L49.69 13.58L49.69 9.51L54.10 9.51L54.10 7.98L49.69 7.98ZM60.37 9.84L63.78 3.92L61.66 3.92L59.47 8.13L57.22 3.92L55.03 3.92L58.45 9.84L58.45 13.58L60.37 13.58Z"></path></g><!----><!----></svg>